/* XPM */
static char *icon_11[] = {
/* columns rows colors chars-per-pixel */
"16 16 5 1 ",
"  c black",
". c #1E1ED5D50000",
"X c #DEDE0000D6D6",
"o c #CBCBCBCBCBCB",
"O c None",
/* pixels */
"OOO OOOOOOOOOOOO",
"OOO OOOOOOOOOOOO",
"OOO OOOOOOOOOOOO",
"OOO OOOOOXOOOOOO",
"OOO OOOOOXoOOOOO",
"OOO OOOOOXoOOOOO",
"OOO OOOOOXoOOOOO",
"OOO OOOOOXoOOOOO",
"OOO OOOOOXoOOOOO",
"OOO OOXXXXXXXOOO",
"OOO OOOoooooooOO",
"OO...OOOOOOOOOOO",
"  ...           ",
"OO...OOOOOOOOOOO",
"OOO OOOOOOOOOOOO",
"OOO OOOOOOOOOOOO"
};
