/* XPM */
static char *icon_9[] = {
/* columns rows colors chars-per-pixel */
"32 32 5 1 ",
"  c black",
". c #1E1ED5D50000",
"X c #DEDE0000D6D6",
"o c #CBCBCBCBCBCB",
"O c None",
/* pixels */
"OOOOOO  OOOOOOOOOOOOOOOOOOOOOOOO",
"OOOOOO  OOOOOOOOOOOOOOOOOOOOOOOO",
"OOOOOO  OOOOOOOOOOOOOOOOOOOOOOOO",
"OOOOOO  OOOOOOOOOOOOOOOOOOOOOOOO",
"OOOOOO  OOOOOOOOOOOOOOOOOOOOOOOO",
"OOOOOO  OOOOOOOOOXXOOOOOOOOOOOOO",
"OOOOOO  OOOOOOOOOXXoOOOOOOOOOOOO",
"OOOOOO  OOOOOOOOOXXoOOOOOOOOOOOO",
"OOOOOO  OOOOOOOOOXXoOOOOOOOOOOOO",
"OOOOOO  OOOOOOOOOXXoOOOOOOOOOOOO",
"OOOOOO  OOOOOOOOOXXoOOOOOOOOOOOO",
"OOOOOO  OOOOOOOOOXXoOOOOOOOOOOOO",
"OOOOOO  OOOOOOOOOXXoOOOOOOOOOOOO",
"OOOOOO  OOOOOOOOOXXoOOOOOOOOOOOO",
"OOOOOO  OOOOOOOOOXXoOOOOOOOOOOOO",
"OOOOOO  OOOOOOOOOXXoOOOOOOOOOOOO",
"OOOOOO  OOOOXXXXXXXXXXXXOOOOOOOO",
"OOOOOO  OOOOXXXXXXXXXXXXOOOOOOOO",
"OOOOOO  OOOOOooooooooooooOOOOOOO",
"OOOOOO  OOOOOOOOOOOOOOOOOOOOOOOO",
"OOOOOO  OOOOOOOOOOOOOOOOOOOOOOOO",
"OOOOOO  OOOOOOOOOOOOOOOOOOOOOOOO",
"OOOO......OOOOOOOOOOOOOOOOOOOOOO",
"OOOO......OOOOOOOOOOOOOOOOOOOOOO",
"    ......                      ",
"    ......                      ",
"OOOO......OOOOOOOOOOOOOOOOOOOOOO",
"OOOO......OOOOOOOOOOOOOOOOOOOOOO",
"OOOOOO  OOOOOOOOOOOOOOOOOOOOOOOO",
"OOOOOO  OOOOOOOOOOOOOOOOOOOOOOOO",
"OOOOOO  OOOOOOOOOOOOOOOOOOOOOOOO",
"OOOOOO  OOOOOOOOOOOOOOOOOOOOOOOO"
};
